# xmcd
#
# Track frame offsets:
#	150
#	14965
#	29667
#	49377
#	65970
#	80942
#	95832
#	109302
#	126860
#	141270
#	156902
#	173727
#	191282
#	209790
#	225552
#	243165
#	259542
#	279400
#	295112
#	310847
#
# Disc length: 4339 seconds
#
# Revision: 0
# Processed by: cddbd v1.4PL0 Copyright (c) Steve Scherf et al.
# Submitted via: audiograbber 1.80.04
#
DISCID=3b10f114
DTITLE=Bellamy Brothers - Greatest HIts
DYEAR=1995
DGENRE=Country
TTITLE0=Let Your Love Flow
TTITLE1=If I Said You Have A Beautyful Body
TTITLE2=You Ain't The Whistlin' Dixie
TTITLE3=Sugar Daddy
TTITLE4=Dancin' Cowboys
TTITLE5=Lovers Live Longer
TTITLE6=Do You Love As Good As You...
TTITLE7=For All Fhe Wrong Reasons
TTITLE8=Get Into Reggae Cowboy
TTITLE9=Redneck Girl
TTITLE10=Feelin' The Feelin'
TTITLE11=When I'm Away From You
TTITLE12=Old Hippie
TTITLE13=Lie To You For Your Love
TTITLE14=Too Much Is Not Enough
TTITLE15=Forget About me
TTITLE16=World's Greatest Lover
TTITLE17=I Need More Of You
TTITLE18=Strong Weakness
TTITLE19=I Love Her Mind
EXTD=
EXTT0=
EXTT1=
EXTT2=
EXTT3=
EXTT4=
EXTT5=
EXTT6=
EXTT7=
EXTT8=
EXTT9=
EXTT10=
EXTT11=
EXTT12=
EXTT13=
EXTT14=
EXTT15=
EXTT16=
EXTT17=
EXTT18=
EXTT19=
PLAYORDER=
